<svg xmlns="http://www.w3.org/2000/svg" xmlns:svg="http://www.w3.org/2000/svg" id="svg8" width="10cm" height="10cm" preserveAspectRatio="xMidYMid meet" version="1.0" viewBox="0 0 3779.528 3779.528"><metadata id="metadata14"/><g id="layer101" transform="matrix(8.3397672,0,0,9.4469161,101.60229,-123.64347)" style="fill:#999;stroke:none"><path id="path2" d="m 202,375 c -17,-19 -34,-50 -37,-69 -7,-36 21,-156 39,-168 31,-21 145,3 195,41 25,19 25,19 7,85 -20,73 -44,109 -86,131 -49,25 -84,19 -118,-20 z m 102,-38 c 17,-12 14,-15 -28,-27 -55,-15 -66,-10 -37,19 24,24 40,26 65,8 z"/></g><g id="layer102" transform="matrix(8.3397672,0,0,9.4469161,101.60229,-123.64347)" style="fill:#ccc;stroke:none"><path id="path5" d="M 110.44492,278.45551 C 66.444915,254.45551 49,223 30,162 19,127 10,92 10,84 10,77 31,59 56,44 93,22 116,16 168,16 c 65,-1 65,-1 79,48 16,54 12.73305,61.90042 -31.26695,61.90042 C 201.73305,125.90042 189,139 182,160 c -4.81144,42.31992 -20.91102,28.81144 -44,39 -33,9 -33,9 0,10 30,1 27.44492,3.45551 21.44492,29.45551 -5.71187,62.09957 0.12076,67.28813 -49,40 z M 191,87 c -1,-12 -17.27754,-17.199153 -21.27754,-4.199153 -3,6 1,14.555085 10.27754,16.199153 11.4661,-3.455508 11,-8 11,-12 z" style="stroke:none"/></g><ellipse style="opacity:1;fill:#fff;fill-opacity:1;stroke:none;stroke-width:4293.00048828;stroke-miterlimit:4;stroke-dasharray:none;stroke-opacity:1" id="path4523" cx="1617.338" cy="672.439" rx="140.557" ry="146.307"/><ellipse id="ellipse4567" cx="789.191" cy="939.234" rx="140.557" ry="146.307" style="opacity:1;fill:#fff;fill-opacity:1;stroke:none;stroke-width:4293.00048828;stroke-miterlimit:4;stroke-dasharray:none;stroke-opacity:1"/><ellipse style="opacity:1;fill:#fff;fill-opacity:1;stroke:none;stroke-width:4293.00048828;stroke-miterlimit:4;stroke-dasharray:none;stroke-opacity:1" id="ellipse4569" cx="2213.754" cy="1765.44" rx="140.557" ry="146.307"/><ellipse id="ellipse4571" cx="2969.723" cy="2015.022" rx="140.557" ry="146.307" style="opacity:1;fill:#fff;fill-opacity:1;stroke:none;stroke-width:4293.00048828;stroke-miterlimit:4;stroke-dasharray:none;stroke-opacity:1"/></svg>